# xmcd CD database file
#
# Track frame offsets:
#	150
#	12064
#	25235
#	38807
#	51238
#	64444
#	76896
#	90332
#	104604
#	119439
#	133012
#	145102
#	159890
#	174029
#	188111
#	202635
#	215681
#	230967
#	243409
#	257048
#
# Disc length: 3566 seconds
#
# Revision: 0
# Processed by: cddbd v1.5.2PL0 Copyright (c) Steve Scherf et al.
# Submitted via: CDex 1.79
#
DISCID=0c0dec14
DTITLE=The Inkspots - The Essential Inkspots Collection
DYEAR=2002
DGENRE=Jazz
TTITLE0=Do I Worry?
TTITLE1=Bless You
TTITLE2=If I Didn't Care
TTITLE3=Whispering Grass (Don't Tell The Trees)
TTITLE4=I'll Get By
TTITLE5=The Gypsy
TTITLE6=When The Swallows Come Back To Capistrano
TTITLE7=My Prayer
TTITLE8=We Three (My Echo, My Shadow and Me)
TTITLE9=I Don't Want to Set the World on Fire
TTITLE10=Don't Get Around Much Anymore
TTITLE11=I'm Making Believe
TTITLE12=To Each His Own
TTITLE13=Maybe
TTITLE14=Into Each Life Some Rain Must Fall
TTITLE15=You Were Only Fooling (While I was Falling In Love)
TTITLE16=You're Breaking My Heart
TTITLE17=I'm Beginning To See The Light
TTITLE18=Cow Cow Boogie
TTITLE19=Java Jive
EXTD=YEAR: 2002
EXTT0=
EXTT1=
EXTT2=
EXTT3=
EXTT4=
EXTT5=
EXTT6=
EXTT7=
EXTT8=
EXTT9=
EXTT10=
EXTT11=
EXTT12=
EXTT13=
EXTT14=
EXTT15=
EXTT16=
EXTT17=
EXTT18=
EXTT19=
PLAYORDER=
